<svg version="1" xmlns="http://www.w3.org/2000/svg" width="2666.667" height="2666.667" viewBox="0 0 2000.000000 2000.000000"><path d="M1664.5 115.6c-28.8 2.9-42.8 5.2-64 10.6-33 8.4-59.4 18.7-100.5 39.3-30.4 15.3-34.8 17.2-52.3 23.1-15.7 5.3-35.9 9.8-53.7 12-27.1 3.3-67.6.8-88.7-5.5-3.8-1.1-18.8-5-33.3-8.5-140.7-34.4-285.1-40.4-431-18-45.7 7-109.5 21.8-150.2 34.9-17.3 5.6-27.1 6.9-53.3 6.9-24.7 0-36.8-1.2-58-6-26.2-5.9-40.4-11.3-75.8-29-52-26.1-87.6-38.9-128.7-46.3-28.3-5.1-64.6-6.8-90.5-4.2-61.3 6.2-117.3 29.7-169.2 70.9-13.4 10.6-40.4 37.5-50.5 50.2C8.2 317.2-9 418.9 17.7 523.5c7.5 29.5 17.6 54.9 37.2 93.5 16.3 32.3 25.1 48 38.2 68 17.2 26.5 20.9 36.9 21.6 60.5.5 17.3.2 18.9-9.1 45C88.7 837.9 73.1 898.7 64 952.3c-10.2 60.9-13.4 104.4-13.5 183.2 0 52 .7 69.1 4.1 106.5 17.6 194.8 86.1 347.4 205.9 459.3 106.6 99.6 252.9 174.9 415.5 214.1 132.4 31.9 264.2 46.5 376 41.6 105.8-4.6 234.1-23.8 328.5-49.1 178.9-48 340.1-144.3 437.7-261.3C1924.6 1519 1977 1350.1 1977 1135c0-126.4-16.1-228.1-53.8-340-6.8-20-18.2-50.2-25.4-67l-5-11.5.4-10.5c.3-9.7.7-11.1 4-18.1 2.1-4.2 9.9-15.8 17.5-26 15.6-20.7 23.6-33.9 35.2-57.9 22.9-47.6 36.8-94.4 42.7-144.5 2.2-18.1 2.5-61.6.6-77-6.5-51.8-21.4-93.7-46-129.5-19.7-28.8-52.7-60.9-85.2-82.9-41.9-28.4-87-45.8-136.5-52.6-11.4-1.6-51.7-2.8-61-1.9zM1068 266c169.2 8.6 331.4 61.3 453.1 147.1 31.8 22.4 58.2 45.1 89.9 76.8 40.7 40.8 70.9 77.7 103.5 126.6 78.6 117.7 129.7 254.2 146.5 391.5 8.3 68.3 9.1 158.6 1.9 231-8.9 90.6-30 168.7-63.9 237.5-35.3 71.7-83 129.3-150.5 182.1-90.5 70.7-212.2 126.3-336.7 153.8-79 17.4-160.9 28.9-247.8 34.7-27.1 1.9-93.3 1.6-122-.5-121.8-8.7-243.2-32.6-338.5-66.6-124.4-44.4-235.1-115.7-304.7-196.3-75.3-87.2-119.5-199.2-134.3-340.2-7.5-71.5-6.9-166.1 1.5-235.5 12.4-101.9 43.2-202.1 91.5-297.5 35.2-69.5 74.9-128.4 125.4-186 13.9-15.9 52.5-54.4 67.9-67.8 61.9-54 128.6-93.8 213.2-127.4 123.2-48.9 261.2-70.5 404-63.3z"/><path d="M1370.5 831c-49.4 4.4-96.7 19.9-132 43.5-52 34.6-87.2 95.9-93.6 162.5-5.5 57.6 16.7 121.1 66.9 191.5 14.2 20 30.9 41.1 66.2 83.5 18.5 22.3 40 48.3 47.8 57.9 31.1 38.1 62.2 70.6 85.7 89.4 40.7 32.7 81.7 50.9 129 57.2 15.9 2.1 46 2.2 63 0 44.7-5.5 85.1-22.2 117.6-48.3 8.7-7.1 25.6-24.2 32-32.7 38.2-49.9 57.6-115.6 55.6-188-2.2-80-27.7-155.1-73.1-215-36.8-48.5-104.8-111.4-157.8-145.8-45.1-29.3-96.3-48.2-147.4-54.2-16-1.9-46.6-2.7-59.9-1.5zm8.8 129.5c32.9 4.9 60.4 24.8 74.8 54 6.4 13 8.9 23.1 9.6 37.5.7 13.9-.7 23.2-5.1 36.3-4.8 14-11.3 24.3-22.6 35.7-18.8 19-40 28.5-66.7 29.7-30.8 1.5-57.5-9.3-78.4-31.5-11.2-11.7-17.7-23.1-22.6-38.9-2.5-8.1-2.7-10.2-2.7-26.3-.1-19.2.6-22.9 7-38.2 14.5-34.9 51.1-58.9 90.9-59.7 3.3 0 10.4.6 15.8 1.4zM595 849.6c-60.4 5.6-116.8 26.9-167.1 63.3-31.3 22.7-55.4 43.5-86.4 74.5-25.1 25.1-39.6 41.8-53.7 61.7-31.9 44.8-52.4 99-60.5 159.9-1.4 10.5-1.8 20.2-1.8 43.5 0 34.5 1.7 49.2 8.5 76 9.2 36 24.7 68.4 45.4 95 11.8 15.1 30.8 32.2 47.5 42.5 34 21.1 72 32.3 114.2 33.7 57.2 2 107.8-15 155.4-52.2 26.1-20.3 52.4-47.4 86.8-89.5 8.3-10.2 28.2-34.3 44.2-53.5 42.5-51.1 55.9-68.4 72.6-93.8 52.9-80.2 65.9-144.6 43.2-213.8-12.8-39.2-38.2-75.9-68.3-98.9-29.7-22.7-71.5-39.4-115-46.1-10.1-1.5-19.5-2.1-37-2.4-12.9-.1-25.5-.1-28 .1zM660.6 960c22 2.8 41 11.5 56.4 25.8 14.3 13.3 23.9 29 28.8 47.1 2.1 7.9 2.5 12 2.6 23.1 0 7.8-.5 16-1.3 19.5-8.4 38.1-36.3 66.3-75.1 76.1-11.3 2.8-36.5 2.7-47.5-.3-18.5-5-34.3-14-46.9-26.6-12.6-12.6-21.5-28.3-25.8-45.3-3.1-12.2-3.1-34.2 0-45.5 5-18.7 14.1-33.8 28-47 16.9-16 33.3-23.4 60.2-27.3 5.2-.7 12.8-.6 20.6.4zM992 1226c-77.5 7-136.4 57.9-139.7 120.6-4.7 90 105.2 154.4 210.7 123.5 26-7.6 48.5-20.7 67.1-39.1 15.9-15.7 25.3-31.1 31.5-51.5 2.5-8.3 2.8-10.3 2.8-27 .1-15.8-.2-19-2.2-26.4-12.5-45.6-52.4-81.1-107.1-95.1-17.9-4.5-44.5-6.7-63.1-5zM806.8 1526.1c-20.6 3.1-34.5 23.9-29.4 43.9 5.1 20.3 44.1 56.7 83.6 78.2 70.5 38.4 166.5 46.3 246.9 20.3 41.7-13.5 79.9-36.7 108.6-66 19.2-19.5 23.8-27.6 23.9-41 0-10.6-3.4-18.3-11-25.5-8-7.6-12.9-9.5-24.4-9.5-8.8 0-10.1.3-16.3 3.3-4.8 2.4-8 4.9-11.4 9-26.3 31.3-56.4 50.7-97.3 62.9-40 11.8-94 12.8-134.5 2.3-16.5-4.3-27.5-8.4-43-16-22.4-11-40.6-24.3-53.7-39.2-12.2-14-17.1-18.4-22.9-20.5-6.5-2.4-12.8-3.2-19.1-2.2z"/></svg>